<svg xmlns="http://www.w3.org/2000/svg" viewBox="0 0 684 163"><path d="M89.6 145.4V31.7H74v48H16.9v-48H1v113.7h15.9V94.5H74v50.9zm106.9 1.7c37.7 0 60.3-29.8 60.3-58.6s-22.6-58.6-60.3-58.6-60.3 29.8-60.3 58.6c.1 28.8 22.5 58.6 60.3 58.6zm0-102.4c21.5 0 43.7 16.4 43.7 43.8s-22.2 43.8-43.7 43.8-43.7-16.4-43.7-43.8 22.2-43.8 43.7-43.8zm223.6 43.8c0-28.8-22.6-58.6-60.3-58.6s-60.3 29.8-60.3 58.6 22.6 58.6 60.3 58.6 60.3-29.8 60.3-58.6zm-60.3-43.8c21.5 0 43.7 16.4 43.7 43.8s-22.2 43.8-43.7 43.8c-21.5 0-43.7-16.4-43.7-43.8s22.2-43.8 43.7-43.8zm138.7-13h-31.8v113.7h15.7v-38.3h16.1c25.1 0 38.7-19.4 38.7-37.7s-13.5-37.7-38.7-37.7zm-16.1 13.8h13.1c17 0 26 8.2 26 23.9 0 15.5-9 23.7-26 23.7h-13.1V45.5zM650 115c0-14.3-8.9-24.9-26.6-31.4l-14.1-5.4c-11.2-4.1-15.8-9.3-15.8-17.1 0-8.5 5.1-17.4 19.5-17.4 11.3 0 18.9 7.6 20.8 20.8l.1.7h14.8v-.8c-1.8-21.8-15.1-34.6-35.7-34.6-17.5 0-35.3 10.9-35.3 31.8 0 14.4 8.3 24.7 25.4 31.4l14.3 5.7c11.4 4.5 17 10.2 17 17.7 0 9.6-8.8 17-20.3 17-13.8 0-21.1-6.6-22.5-20.1v-.7h-15.7v.8c1.7 21.6 15.3 33.9 37.4 33.9 21.6-.2 36.7-13.3 36.7-32.3z" fill="#fff"/></svg>