<?xml version="1.0" encoding="utf-8"?>
<!-- Generator: Adobe Illustrator 21.0.0, SVG Export Plug-In . SVG Version: 6.00 Build 0)  -->
<svg version="1.1" id="Layer_1" xmlns="http://www.w3.org/2000/svg" xmlns:xlink="http://www.w3.org/1999/xlink" x="0px" y="0px"
	 viewBox="0 0 143.8 24" style="enable-background:new 0 0 143.8 24;" xml:space="preserve">
<g>
	<g>
		<g>
			<path style="fill:#FFFFFF;" d="M5.8,17.9H1.2c-0.8,0-1.2-0.5-1.2-0.5c0.8,1.4,3.1,5.8,3.1,5.8C3.5,23.7,3.9,24,4.5,24
				c1.3,0,3.3-1.3,3.3-1.3l7.7-4.8H5.8z"/>
			<path style="fill:#FFFFFF;" d="M5.9,1.8l-5.5,13c-0.3,0.9-0.1,2,1.5,2h4.3l3.8-9.1C8.8,4.7,7.8,2.3,7.8,2.3
				c-0.1-0.3-0.4-1.1-1-1.1C6.2,1.2,6,1.7,5.9,1.8z"/>
			<g>
				<path style="fill:#FFFFFF;" d="M15,0.9c-0.1-0.1-0.3-0.6-1-0.6c0,0,0,0,0,0H7.1c0,0,1,0.1,1.4,1.1c0,0,1.1,2.6,2.1,5.1
					c2.9,6.8,7.4,17.6,7.4,17.6h6.7C24.8,24,15.1,1,15,0.9z"/>
			</g>
		</g>
		<g>
			<g>
				<path style="fill:#FFFFFF;" d="M43.7,17.8h-2.5l-1.4-3.3h-6.5l-1.4,3.3h-2.5l6-13.8h2.2L43.7,17.8z M36.5,6.9l-2.4,5.5h4.7
					L36.5,6.9z"/>
				<path style="fill:#FFFFFF;" d="M66,17.8h-2.4V6.3h-4.4V4.1h11.3l-0.9,2.2H66V17.8z"/>
				<path style="fill:#FFFFFF;" d="M112.2,6.3h-7.4v3.5h4.7V12h-4.7v3.6h7.4v2.2h-9.8V4.1h9.8V6.3z"/>
				<path style="fill:#FFFFFF;" d="M129.4,17.8h-2.3V4.1h2.3V17.8z"/>
			</g>
			<path style="fill:#FFFFFF;" d="M119.6,6.1c-1.4,0-2.6,0.4-2.6,1.4c0,1.1,0.7,1.5,3.3,2.3c2.9,0.9,4.4,1.9,4.4,4.2
				c0,2.6-2,4.1-5,4.1c-2.1,0-4-0.7-5.4-1.9l0.9-2.2c1.3,1.1,2.9,1.9,4.6,1.9c1.5,0,2.5-0.7,2.5-1.8c0-0.9-0.5-1.5-3-2.3
				c-2.9-0.9-4.6-1.9-4.6-4.3c0-2.3,2.2-3.7,4.9-3.6c2.7,0,4.3,1,4.5,1.2l-0.9,2C122.7,6.7,121.5,6.1,119.6,6.1z"/>
			<polygon style="fill:#FFFFFF;" points="132.4,10.7 138.5,4.1 135.6,4.1 129.4,10.7 136.2,17.8 139.2,17.8 			"/>
			<path style="fill:#FFFFFF;" d="M78,3.9C74,3.9,70.8,7,70.8,11c0,3.9,3.2,7.1,7.1,7.1c3.9,0,7.1-3.2,7.1-7.1
				C85.1,7,81.9,3.9,78,3.9z M78,15.9c-2.7,0-4.7-2.2-4.7-4.9c0-2.7,2-4.9,4.7-4.9s4.7,2.2,4.7,4.9C82.6,13.7,80.6,15.9,78,15.9z"/>
			<path style="fill:#FFFFFF;" d="M92.8,4.1h-5.2v13.7h5.2c3.9,0,7.1-3,7.1-6.9C99.9,7,96.7,4.1,92.8,4.1z M92.8,15.6H90V6.3h2.8
				c2.7,0,4.7,1.9,4.7,4.6S95.5,15.6,92.8,15.6z"/>
			<path style="fill:#FFFFFF;" d="M56.5,11.8c0,4.1-2.4,6.3-5.9,6.3c-3.5,0-5.9-2.2-5.9-6.3V4.1h2.4V12c0,2.4,1.4,3.8,3.5,3.8
				c2,0,3.5-1.4,3.5-3.8V4.1h2.4V11.8z"/>
		</g>
	</g>
	<g>
		<g>
			<path style="fill:#FFFFFF;" d="M143.8,16.1c0-1-0.8-1.7-1.7-1.7c-1,0-1.7,0.8-1.7,1.7c0,1,0.8,1.7,1.7,1.7
				C143,17.8,143.8,17.1,143.8,16.1z M143.6,16.1c0,0.9-0.6,1.5-1.5,1.5c-0.8,0-1.5-0.6-1.5-1.5c0-0.9,0.6-1.5,1.5-1.5
				C142.9,14.6,143.6,15.2,143.6,16.1z"/>
		</g>
		<g>
			<path style="fill:#FFFFFF;" d="M142.8,17l-0.4-0.6c-0.1-0.1-0.1-0.2-0.2-0.2c0.3,0,0.5-0.2,0.5-0.5c0-0.3-0.2-0.5-0.6-0.5h-0.6
				V17h0.3v-0.8c0.1,0,0.2,0,0.3,0.2l0.4,0.6H142.8z M142.4,15.7c0,0.3-0.2,0.3-0.4,0.3h-0.2v-0.6h0.3
				C142.3,15.4,142.4,15.5,142.4,15.7z"/>
		</g>
	</g>
</g>
</svg>
